<svg width="800" height="640" viewBox="0 0 800 640" fill="none" xmlns="http://www.w3.org/2000/svg">
  <rect width="800" height="640" rx="48" fill="#F6F3EC"/>
  <circle cx="677" cy="133" r="120" fill="#E7F0E1"/>
  <circle cx="707" cy="545" r="106" fill="#E9F5E2"/>
  <circle cx="124" cy="87" r="72" fill="#F1E8D7"/>
  <text x="74" y="92" fill="#254F1D" font-size="34" font-weight="700" font-family="PingFang SC, Microsoft YaHei, sans-serif">展瑞招聘</text>
  <text x="74" y="146" fill="#83907D" font-size="24" font-family="PingFang SC, Microsoft YaHei, sans-serif">首页分享封面</text>
  <text x="400" y="242" text-anchor="middle" fill="#285B1F" font-size="108" font-weight="800" font-family="PingFang SC, Microsoft YaHei, sans-serif">热门岗位</text>
  <text x="400" y="310" text-anchor="middle" fill="#285B1F" font-size="54" font-weight="700" font-family="PingFang SC, Microsoft YaHei, sans-serif">-- 薪资透明 --</text>
  <text x="78" y="396" fill="#1E1E1E" font-size="38" font-weight="700" font-family="PingFang SC, Microsoft YaHei, sans-serif">制造 / 物流 / 服务 / 职场岗位持续更新</text>
  <text x="78" y="452" fill="#444444" font-size="28" font-family="PingFang SC, Microsoft YaHei, sans-serif">白班夜班、包吃住、五险福利、就近上岗</text>
  <text x="78" y="500" fill="#444444" font-size="28" font-family="PingFang SC, Microsoft YaHei, sans-serif">打开小程序，查看更多合适岗位与岗位详情</text>
  <rect x="78" y="540" width="224" height="66" rx="18" fill="#12BC58"/>
  <text x="190" y="584" text-anchor="middle" fill="#FFFFFF" font-size="34" font-weight="700" font-family="PingFang SC, Microsoft YaHei, sans-serif">立即查看</text>
  <g transform="translate(562 254)">
    <circle cx="98" cy="82" r="36" fill="#F5C73C"/>
    <path d="M98 324C93 256 84 199 56 130" stroke="#79A73E" stroke-width="10" stroke-linecap="round"/>
    <g stroke="#B8B8B8" stroke-width="4" stroke-linecap="round">
      <path d="M98 6C111 33 111 58 98 82"/>
      <path d="M156 24C145 52 127 67 98 82"/>
      <path d="M201 70C170 70 137 73 98 82"/>
      <path d="M196 128C168 114 137 99 98 82"/>
      <path d="M151 185C139 154 122 118 98 82"/>
      <path d="M98 204C94 163 94 123 98 82"/>
      <path d="M46 188C58 156 76 119 98 82"/>
      <path d="M0 133C29 118 61 101 98 82"/>
      <path d="M-6 73C24 70 58 73 98 82"/>
      <path d="M42 24C55 50 73 66 98 82"/>
    </g>
  </g>
</svg>